inDegrees=no
num_controls=7
num_derivatives=13
num_iterations=101
num_multipliers=7
num_parameters=0
num_slacks=7
num_states=26
objective=0.444923
objective_accelerations=0.057632
objective_balance=0.003583
objective_effort=0.023134
objective_height=0.355062
objective_ligament=0.005512
solver_duration=1607.993553
status=Solve_Succeeded
success=true
DataType=double
version=3
OpenSimVersion=4.5
endheader
time	/jointset/ground_pelvis/pelvis_tilt/value	/jointset/ground_pelvis/pelvis_tx/value	/jointset/ground_pelvis/pelvis_ty/value	/jointset/hip_l/hip_flexion_l/value	/jointset/hip_l/hip_adduction_l/value	/jointset/hip_l/hip_rotation_l/value	/jointset/back/lumbar_extension/value	/jointset/patellofemoral_l/patellar_flexion_l/value	/jointset/knee_l/knee_flexion_l/value	/jointset/knee_l/knee_adduction_l/value	/jointset/knee_l/knee_rotation_l/value	/jointset/ankle_l/ankle_angle_l/value	/jointset/subtalar_l/subtalar_angle_l/value	/jointset/ground_pelvis/pelvis_tilt/speed	/jointset/ground_pelvis/pelvis_tx/speed	/jointset/ground_pelvis/pelvis_ty/speed	/jointset/hip_l/hip_flexion_l/speed	/jointset/hip_l/hip_adduction_l/speed	/jointset/hip_l/hip_rotation_l/speed	/jointset/back/lumbar_extension/speed	/jointset/patellofemoral_l/patellar_flexion_l/speed	/jointset/knee_l/knee_flexion_l/speed	/jointset/knee_l/knee_adduction_l/speed	/jointset/knee_l/knee_rotation_l/speed	/jointset/ankle_l/ankle_angle_l/speed	/jointset/subtalar_l/subtalar_angle_l/speed	/forceset/tau_hip_flexion_l	/forceset/tau_hip_adduction_l	/forceset/tau_hip_rotation_l	/forceset/tau_knee_flexion_l	/forceset/tau_ankle_angle_l	/forceset/tau_subtalar_angle_l	/forceset/tau_lumbar_extension	lambda_cid13_p0	lambda_cid13_p1	lambda_cid13_p2	lambda_cid13_p3	lambda_cid13_p4	lambda_cid13_p5	lambda_cid14_p0	/jointset/ground_pelvis/pelvis_tilt/accel	/jointset/ground_pelvis/pelvis_tx/accel	/jointset/ground_pelvis/pelvis_ty/accel	/jointset/hip_l/hip_flexion_l/accel	/jointset/hip_l/hip_adduction_l/accel	/jointset/hip_l/hip_rotation_l/accel	/jointset/back/lumbar_extension/accel	/jointset/patellofemoral_l/patellar_flexion_l/accel	/jointset/knee_l/knee_flexion_l/accel	/jointset/knee_l/knee_adduction_l/accel	/jointset/knee_l/knee_rotation_l/accel	/jointset/ankle_l/ankle_angle_l/accel	/jointset/subtalar_l/subtalar_angle_l/accel	gamma_cid13_p0	gamma_cid13_p1	gamma_cid13_p2	gamma_cid13_p3	gamma_cid13_p4	gamma_cid13_p5	gamma_cid14_p0
1.5	-0.3700575424276525	-0.02530747221111418	0.7602638973069088	1.112801576752178	-0.4366954486153689	-0.2076257847818679	-0.2265149318341548	0.8077844611568792	0.8077844611568791	-0.1358728025173413	-0.1452625705051407	0.1265503985239555	-0.02232076854317978	0.6839099936621409	0.2756898276288621	0.5376088016606916	-2.474074967561593	0.2090811207316131	-0.726972963394356	0.3147448174279316	-2.017005288427645	-2.01700528842764	-0.1210565460345451	0.136954474739049	-0.3928546783634111	0.04011815004335297	-0.1759291006181717	0.02780527586053547	-0.00773620767541233	-0.205875000391156	0.04652631870095388	0.04284257403054997	0.1695972308333408	-17.30511082604674	-18.50173703895131	5.9550552587209	-8.512919143754697	-520.9881297073831	-61.1800433545798	-24.81806040217742	0.6555102078635405	0.7325377651435835	-0.5056951121453555	-1.330821247164558	0.7271391584016078	-0.2599648024041273	1.528238928573251	-1.352198673800088	-1.352198673800075	0.1783044869066481	0.1729096473734412	-0.4849456604411553	0.5418148652549594	5.03067250802122e-07	6.302616234762527e-07	-2.748485188751366e-06	-6.873224124957283e-08	7.187253943515521e-07	-4.052234023390557e-08	4.72051372884287e-07
1.51	-0.3631856392418167	-0.02251427753912683	0.7656135867422319	1.087996080252108	-0.4345698774902156	-0.2149068925818324	-0.2232924750124073	0.7875492376661688	0.7875492376661688	-0.1370779212711336	-0.1438856304524831	0.1225977244932423	-0.02189443563554727	0.6903783789293081	0.2829064457614666	0.5322104804162314	-2.486670808165717	0.2160059100159531	-0.7291161019950657	0.3297027193781664	-2.029747405035293	-2.029747405035292	-0.1199956320510523	0.1384305797700513	-0.3976177876870379	0.04514143247423283	-0.1700180062257745	0.02718276434945867	-0.007363098573152044	-0.2025479682701357	0.04580463960124415	0.042107006328261	0.1647526715918771	-17.31142447128342	-18.18547769059039	5.909549505589951	-8.139144617929457	-516.8342327783849	-61.32269318774733	-25.73176087814506	0.6286892745622965	0.7098495335560089	-0.5745696885866928	-1.170901087087778	0.671140383838898	-0.1712424727524707	1.472991696737237	-1.191500016312304	-1.191500016312825	0.06585878536809271	0.1341410966905501	-0.4626114257900202	0.4815500653797312	4.480530804490233e-07	9.93160483396991e-07	-2.085487539097647e-06	5.86271552291353e-08	6.459441795665746e-07	6.473483393588175e-08	4.329584649257485e-07
1.52	-0.3562518148856255	-0.01965019154656602	0.7709057591535123	1.063075238221986	-0.4323758601581411	-0.2222053825845735	-0.2199217539974597	0.7671953366369687	0.767195336636969	-0.1382732560988315	-0.14249409331637	0.1185992957977996	-0.02141807687693091	0.6962942277332361	0.2898680917435562	0.5261053968521573	-2.497144073571903	0.2227703621158413	-0.7304494039496943	0.3443976560679471	-2.040740796125547	-2.04074079612555	-0.1190997608156595	0.1398738914301308	-0.4020056113093282	0.05012332024012205	-0.1641069118333773	0.02656025283838195	-0.006989989470893278	-0.1992209361491139	0.04508296050153452	0.04137143862597228	0.1599081123504131	-17.32138338269659	-17.87257834452018	5.869147658171856	-7.799043127829026	-512.752291538031	-61.51784028624773	-26.64527524951425	0.5450029152157083	0.6815433350405879	-0.6470475760681583	-0.9063062075771781	0.6950717215112613	-0.09799747318743195	1.475645876482464	-1.002453570321487	-1.002453570321488	0.1452959372866589	0.1663509731888844	-0.4098885201738895	0.5335359322568335	4.169691561523671e-07	1.324544322312606e-06	-1.607413892741628e-06	1.596473842610608e-07	6.096210921020727e-07	1.538414467221622e-07	4.134111177350577e-07
1.53	-0.3492617241674913	-0.01671760923146108	0.7761335059024964	1.038059918273568	-0.4301150075948609	-0.2295151307318078	-0.2164055688588238	0.7467402436842996	0.7467402436843003	-0.1394592605256184	-0.1410896086763473	0.1145591867741529	-0.02089189281491346	0.7016056002646595	0.2966201457856316	0.5193379314585249	-2.505571192780905	0.2293791256146514	-0.7314405441368939	0.3587946364597009	-2.049978257192118	-2.049978257192119	-0.1180671564887392	0.1409777889588885	-0.405916391755457	0.05513639569961847	-0.1574561936042002	0.02484624430955747	-0.006752389338016415	-0.1976433053628615	0.04675170106005057	0.04053721397482453	0.1545647590450894	-16.58569180099471	-17.64822685624143	5.843817432195197	-8.117342365547424	-508.9897479137425	-61.84066361158416	-27.55852197391366	0.5064605311084756	0.6678569713648483	-0.7073765785405582	-0.7585946507621292	0.6405415875373082	-0.0903505844662985	1.415013840591567	-0.8395448491922619	-0.8395448491924481	0.08759721936401646	0.07533897465145492	-0.3666395680873132	0.4884805920692067	4.113111182906808e-07	1.622443451410278e-06	-1.325821999889414e-06	2.326822478807799e-07	6.120347649155755e-07	2.257880880384669e-07	4.14630928860205e-07
